<svg version="1.1" xmlns="http://www.w3.org/2000/svg" xmlns:xlink="http://www.w3.org/1999/xlink" width="514" height="335"><defs><linearGradient id="hQCNoKNcmDoQ" x1="0px" x2="32px" y1="0px" y2="0px" gradientUnits="userSpaceOnUse"><stop offset="0" stop-color="#01fd01"/><stop offset="1" stop-color="#609e60"/></linearGradient><linearGradient id="gDFETAZfvdbt" x1="0px" x2="32px" y1="0px" y2="0px" gradientUnits="userSpaceOnUse"><stop offset="0" stop-color="#609e60"/><stop offset="1" stop-color="#807f7f"/></linearGradient><linearGradient id="DUfVivZQIUAP" x1="0px" x2="32px" y1="0px" y2="0px" gradientUnits="userSpaceOnUse"><stop offset="0" stop-color="#02fc02"/><stop offset="1" stop-color="#1ee01e"/></linearGradient><linearGradient id="GBCcFpZOFTgG" x1="0px" x2="32px" y1="0px" y2="0px" gradientUnits="userSpaceOnUse"><stop offset="0" stop-color="#1ee01e"/><stop offset="1" stop-color="#2cd22c"/></linearGradient><linearGradient id="cFOTAkuQXycn" x1="0px" x2="32px" y1="0px" y2="0px" gradientUnits="userSpaceOnUse"><stop offset="0" stop-color="#2cd22c"/><stop offset="1" stop-color="#817e7e"/></linearGradient></defs><g><rect fill="#000000" stroke="none" x="0" y="0" width="514" height="335"/><g transform="scale(1,1) translate(-90,-25)"><path fill="none" stroke="#807f7f" paint-order="fill stroke markers" d=" M 176 240 L 176 180" stroke-linecap="round" stroke-miterlimit="10" stroke-width="3" stroke-dasharray=""/><path fill="none" stroke="#01fd01" paint-order="fill stroke markers" d=" M 176 172 L 176 112" stroke-linecap="round" stroke-miterlimit="10" stroke-width="3" stroke-dasharray=""/><path fill="none" stroke="#807f7f" paint-order="fill stroke markers" d=" M 166 180 L 186 180" stroke-linecap="round" stroke-miterlimit="10" stroke-width="3" stroke-dasharray=""/><path fill="none" stroke="#01fd01" paint-order="fill stroke markers" d=" M 160 172 L 192 172" stroke-linecap="round" stroke-miterlimit="10" stroke-width="3" stroke-dasharray=""/><text fill="#ffffff" stroke="none" font-family="sans-serif" font-size="12px" font-style="normal" font-weight="normal" text-decoration="normal" x="144" y="182" text-anchor="start" dominant-baseline="alphabetic">5V</text><path fill="none" stroke="#01fd01" paint-order="fill stroke markers" d=" M 176 112 L 272 112" stroke-linecap="round" stroke-miterlimit="10" stroke-width="3" stroke-dasharray=""/><path fill="none" stroke="#01fd01" paint-order="fill stroke markers" d=" M 272 112 L 272 136" stroke-linecap="round" stroke-miterlimit="10" stroke-width="3" stroke-dasharray=""/><path fill="none" stroke="#609e60" paint-order="fill stroke markers" d=" M 272 168 L 272 192" stroke-linecap="round" stroke-miterlimit="10" stroke-width="3" stroke-dasharray=""/><g transform="matrix(0,1,-1,0,272,136)"><path fill="none" stroke="url(#hQCNoKNcmDoQ)" paint-order="fill stroke markers" d=" M 0 0 L 2 6 L 6 -6 L 10 6 L 14 -6 L 18 6 L 22 -6 L 26 6 L 30 -6 L 32 0" stroke-linecap="round" stroke-miterlimit="10" stroke-width="3" stroke-dasharray=""/></g><text fill="#ffffff" stroke="none" font-family="sans-serif" font-size="12px" font-style="normal" font-weight="normal" text-decoration="normal" x="282" y="158" text-anchor="start" dominant-baseline="alphabetic">3k</text><path fill="none" stroke="#609e60" paint-order="fill stroke markers" d=" M 272 192 L 272 208" stroke-linecap="round" stroke-miterlimit="10" stroke-width="3" stroke-dasharray=""/><path fill="none" stroke="#807f7f" paint-order="fill stroke markers" d=" M 272 240 L 272 256" stroke-linecap="round" stroke-miterlimit="10" stroke-width="3" stroke-dasharray=""/><g transform="matrix(0,1,-1,0,272,208)"><path fill="none" stroke="url(#gDFETAZfvdbt)" paint-order="fill stroke markers" d=" M 0 0 L 2 6 L 6 -6 L 10 6 L 14 -6 L 18 6 L 22 -6 L 26 6 L 30 -6 L 32 0" stroke-linecap="round" stroke-miterlimit="10" stroke-width="3" stroke-dasharray=""/></g><text fill="#ffffff" stroke="none" font-family="sans-serif" font-size="12px" font-style="normal" font-weight="normal" text-decoration="normal" x="282" y="230" text-anchor="start" dominant-baseline="alphabetic">1k</text><path fill="none" stroke="#807f7f" paint-order="fill stroke markers" d=" M 272 256 L 176 256" stroke-linecap="round" stroke-miterlimit="10" stroke-width="3" stroke-dasharray=""/><path fill="none" stroke="#807f7f" paint-order="fill stroke markers" d=" M 176 256 L 176 240" stroke-linecap="round" stroke-miterlimit="10" stroke-width="3" stroke-dasharray=""/><path fill="none" stroke="#609e60" paint-order="fill stroke markers" d=" M 272 192 L 320 192" stroke-linecap="round" stroke-miterlimit="10" stroke-width="3" stroke-dasharray=""/><path fill="none" stroke="#609e60" paint-order="fill stroke markers" d=" M 320 192 L 320 272" stroke-linecap="round" stroke-miterlimit="10" stroke-width="3" stroke-dasharray=""/><path fill="none" stroke="#817e7e" paint-order="fill stroke markers" d=" M 384 256 L 384 172" stroke-linecap="round" stroke-miterlimit="10" stroke-width="3" stroke-dasharray=""/><path fill="none" stroke="#02fc02" paint-order="fill stroke markers" d=" M 384 164 L 384 80" stroke-linecap="round" stroke-miterlimit="10" stroke-width="3" stroke-dasharray=""/><path fill="none" stroke="#817e7e" paint-order="fill stroke markers" d=" M 374 172 L 394 172" stroke-linecap="round" stroke-miterlimit="10" stroke-width="3" stroke-dasharray=""/><path fill="none" stroke="#02fc02" paint-order="fill stroke markers" d=" M 368 164 L 400 164" stroke-linecap="round" stroke-miterlimit="10" stroke-width="3" stroke-dasharray=""/><text fill="#ffffff" stroke="none" font-family="sans-serif" font-size="12px" font-style="normal" font-weight="normal" text-decoration="normal" x="352" y="174" text-anchor="start" dominant-baseline="alphabetic">5V</text><path fill="none" stroke="#02fc02" paint-order="fill stroke markers" d=" M 384 80 L 480 80" stroke-linecap="round" stroke-miterlimit="10" stroke-width="3" stroke-dasharray=""/><path fill="none" stroke="#02fc02" paint-order="fill stroke markers" d=" M 480 80 L 480 104" stroke-linecap="round" stroke-miterlimit="10" stroke-width="3" stroke-dasharray=""/><path fill="none" stroke="#1ee01e" paint-order="fill stroke markers" d=" M 480 136 L 480 160" stroke-linecap="round" stroke-miterlimit="10" stroke-width="3" stroke-dasharray=""/><g transform="matrix(0,1,-1,0,480,104)"><path fill="none" stroke="url(#DUfVivZQIUAP)" paint-order="fill stroke markers" d=" M 0 0 L 2 6 L 6 -6 L 10 6 L 14 -6 L 18 6 L 22 -6 L 26 6 L 30 -6 L 32 0" stroke-linecap="round" stroke-miterlimit="10" stroke-width="3" stroke-dasharray=""/></g><text fill="#ffffff" stroke="none" font-family="sans-serif" font-size="12px" font-style="normal" font-weight="normal" text-decoration="normal" x="490" y="126" text-anchor="start" dominant-baseline="alphabetic">2k</text><path fill="none" stroke="#1ee01e" paint-order="fill stroke markers" d=" M 480 160 L 480 176" stroke-linecap="round" stroke-miterlimit="10" stroke-width="3" stroke-dasharray=""/><path fill="none" stroke="#2cd22c" paint-order="fill stroke markers" d=" M 480 208 L 480 224" stroke-linecap="round" stroke-miterlimit="10" stroke-width="3" stroke-dasharray=""/><g transform="matrix(0,1,-1,0,480,176)"><path fill="none" stroke="url(#GBCcFpZOFTgG)" paint-order="fill stroke markers" d=" M 0 0 L 2 6 L 6 -6 L 10 6 L 14 -6 L 18 6 L 22 -6 L 26 6 L 30 -6 L 32 0" stroke-linecap="round" stroke-miterlimit="10" stroke-width="3" stroke-dasharray=""/></g><text fill="#ffffff" stroke="none" font-family="sans-serif" font-size="12px" font-style="normal" font-weight="normal" text-decoration="normal" x="490" y="198" text-anchor="start" dominant-baseline="alphabetic">1k</text><path fill="none" stroke="#2cd22c" paint-order="fill stroke markers" d=" M 480 224 L 480 248" stroke-linecap="round" stroke-miterlimit="10" stroke-width="3" stroke-dasharray=""/><path fill="none" stroke="#817e7e" paint-order="fill stroke markers" d=" M 480 280 L 480 304" stroke-linecap="round" stroke-miterlimit="10" stroke-width="3" stroke-dasharray=""/><g transform="matrix(0,1,-1,0,480,248)"><path fill="none" stroke="url(#cFOTAkuQXycn)" paint-order="fill stroke markers" d=" M 0 0 L 2 6 L 6 -6 L 10 6 L 14 -6 L 18 6 L 22 -6 L 26 6 L 30 -6 L 32 0" stroke-linecap="round" stroke-miterlimit="10" stroke-width="3" stroke-dasharray=""/></g><text fill="#ffffff" stroke="none" font-family="sans-serif" font-size="12px" font-style="normal" font-weight="normal" text-decoration="normal" x="490" y="270" text-anchor="start" dominant-baseline="alphabetic">6k</text><path fill="none" stroke="#817e7e" paint-order="fill stroke markers" d=" M 384 256 L 384 304" stroke-linecap="round" stroke-miterlimit="10" stroke-width="3" stroke-dasharray=""/><path fill="none" stroke="#817e7e" paint-order="fill stroke markers" d=" M 384 304 L 480 304" stroke-linecap="round" stroke-miterlimit="10" stroke-width="3" stroke-dasharray=""/><path fill="none" stroke="#1ee01e" paint-order="fill stroke markers" d=" M 480 160 L 512 160" stroke-linecap="round" stroke-miterlimit="10" stroke-width="3" stroke-dasharray=""/><path fill="none" stroke="#2cd22c" paint-order="fill stroke markers" d=" M 480 224 L 512 224" stroke-linecap="round" stroke-miterlimit="10" stroke-width="3" stroke-dasharray=""/><path fill="none" stroke="#807f7f" paint-order="fill stroke markers" d=" M 480 96 L 528 96" stroke-linecap="round" stroke-miterlimit="10" stroke-width="3" stroke-dasharray=""/><path fill="none" stroke="#807f7f" paint-order="fill stroke markers" d=" M 272 128 L 320 128" stroke-linecap="round" stroke-miterlimit="10" stroke-width="3" stroke-dasharray=""/><path fill="#ffffff" stroke="none" paint-order="stroke fill markers" d=" M 275 192 A 3 3 0 1 1 274.99999999995777 191.99998407846124 Z"/><path fill="#ffffff" stroke="none" paint-order="stroke fill markers" d=" M 323 272 A 3 3 0 1 1 322.99999999995777 271.99998407846124 Z"/><path fill="#ffffff" stroke="none" paint-order="stroke fill markers" d=" M 483 160 A 3 3 0 1 1 482.99999999995777 159.99998407846124 Z"/><path fill="#ffffff" stroke="none" paint-order="stroke fill markers" d=" M 483 224 A 3 3 0 1 1 482.99999999995777 223.99998407846124 Z"/><path fill="#ffffff" stroke="none" paint-order="stroke fill markers" d=" M 515 160 A 3 3 0 1 1 514.9999999999577 159.99998407846124 Z"/><path fill="#ffffff" stroke="none" paint-order="stroke fill markers" d=" M 515 224 A 3 3 0 1 1 514.9999999999577 223.99998407846124 Z"/><path fill="#ffffff" stroke="none" paint-order="stroke fill markers" d=" M 483 96 A 3 3 0 1 1 482.99999999995777 95.99998407846124 Z"/><path fill="#ffffff" stroke="none" paint-order="stroke fill markers" d=" M 531 96 A 3 3 0 1 1 530.9999999999577 95.99998407846124 Z"/><path fill="#ffffff" stroke="none" paint-order="stroke fill markers" d=" M 275 128 A 3 3 0 1 1 274.99999999995777 127.99998407846124 Z"/><path fill="#ffffff" stroke="none" paint-order="stroke fill markers" d=" M 323 128 A 3 3 0 1 1 322.99999999995777 127.99998407846124 Z"/></g></g></svg>